HIERARCHY
ROOT Hips
{
	OFFSET 0.00000 0.00000 0.00000
	CHANNELS 6 Xposition Yposition Zposition Zrotation Yrotation Xrotation 
	JOINT RightUpLegDummy
	{
		OFFSET 0 0 0
		CHANNELS 3 Zrotation Yrotation Xrotation
		JOINT RightUpLeg
		{
			OFFSET -3.52197 -3.41223 0.04002
			CHANNELS 3 Zrotation Yrotation Xrotation
			JOINT RightLeg
			{
				OFFSET 0.00006 -17.42390 1.60435
				CHANNELS 3 Zrotation Yrotation Xrotation
				JOINT RightFoot
				{
					OFFSET 0.06153 -16.50078 -1.63901
					CHANNELS 3 Zrotation Yrotation Xrotation
					JOINT RightToes
					{
						OFFSET 0.00298 -1.73825 3.34613
						CHANNELS 3 Zrotation Yrotation Xrotation
						End Site
						{
							OFFSET 0.00480 -0.05416 3.85043
						}
					}
				}
			}
		}
	}
	JOINT SpineDummy
	{
		OFFSET 0 0 0
		CHANNELS 3 Zrotation Yrotation Xrotation
		JOINT Spine
		{
			OFFSET 0.00000 4.68130 0.00000
			CHANNELS 3 Zrotation Yrotation Xrotation
			JOINT Spine1
			{
				OFFSET -0.00000 10.10138 0.05002
				CHANNELS 3 Zrotation Yrotation Xrotation
				JOINT HEadDummy
				{
					OFFSET 0 0 0
					CHANNELS 3 Zrotation Yrotation Xrotation
					JOINT Head
					{
						OFFSET -0.00000 3.43865 0.00438
						CHANNELS 3 Zrotation Yrotation Xrotation
						End Site
						{
							OFFSET -0.11417 5.02924 0.98962
						}
					}
				}
				JOINT LeftShoulder1Dummy
				{
					OFFSET 0 0 0
					CHANNELS 3 Zrotation Yrotation Xrotation
					JOINT LeftShoulder1
					{
						OFFSET 3.53937 -0.14262 -0.08662
						CHANNELS 3 Zrotation Yrotation Xrotation
						JOINT LeftArm
						{
							OFFSET 4.04833 -0.00133 0.12681
							CHANNELS 3 Zrotation Yrotation Xrotation
							JOINT LeftForeArm
							{
								OFFSET 10.33880 -0.01036 -0.55515
								CHANNELS 3 Zrotation Yrotation Xrotation
								JOINT LeftHand
								{
									OFFSET 8.69677 0.07543 0.40060
									CHANNELS 3 Zrotation Yrotation Xrotation
									End Site
									{
										OFFSET 5.28377 -0.21905 0.59205
									}
								}
							}
						}
					}
				}
				JOINT RightShoulderDummy
				{
					OFFSET 0 0 0
					CHANNELS 3 Zrotation Yrotation Xrotation
					JOINT RightShoulder
					{
						OFFSET -3.53937 -0.14262 -0.08660
						CHANNELS 3 Zrotation Yrotation Xrotation
						JOINT RightArm
						{
							OFFSET -4.04833 -0.00133 0.12683
							CHANNELS 3 Zrotation Yrotation Xrotation
							JOINT RightForeArm
							{
								OFFSET -10.37987 -0.01039 -0.55511
								CHANNELS 3 Zrotation Yrotation Xrotation
								JOINT RightHand
								{
									OFFSET -8.67398 0.07538 0.40058
									CHANNELS 3 Zrotation Yrotation Xrotation
									End Site
									{
										OFFSET -5.24810 -0.21916 0.59204
									}
								}
							}
						}
					}
				}
			}
		}
	}
	JOINT LeftUpLegDummy
	{
		OFFSET 0 0 0
		CHANNELS 3 Zrotation Yrotation Xrotation
		JOINT LeftUpLeg
		{
			OFFSET 3.52197 -3.41223 0.04002
			CHANNELS 3 Zrotation Yrotation Xrotation
			JOINT LeftLeg
			{
				OFFSET -0.00012 -17.42399 1.60337
				CHANNELS 3 Zrotation Yrotation Xrotation
				JOINT LeftFoot
				{
					OFFSET -0.09972 -16.50070 -1.63802
					CHANNELS 3 Zrotation Yrotation Xrotation
					JOINT LeftToes
					{
						OFFSET -0.01575 -1.73823 3.34611
						CHANNELS 3 Zrotation Yrotation Xrotation
						End Site
						{
							OFFSET 0.03150 -0.01868 3.85031
						}
					}
				}
			}
		}
	}
}
MOTION
Frames: 14
Frame Time: 0.033333
-47.9568 39.9284 63.2139 -178.9610 34.8849 178.1470 0.0000 0.0000 0.0000 3.2508 -0.9153 2.1500 -1.2995 -5.3115 4.0735 -2.5819 0.1574 -3.9496 0.0000 -0.0000 0.0000 0.0000 0.0000 0.0000 1.3243 0.5083 1.9449 1.6715 0.1591 -0.3313 -0.0000 0.0000 -0.0000 2.0982 0.0812 8.3155 -0.0000 0.0000 -0.0000 -34.3897 -2.6112 2.4720 -44.0437 -15.0088 -16.5163 -10.7983 5.0268 51.3459 14.5199 -3.9123 -1.1340 -0.0000 0.0000 -0.0000 34.8886 5.1825 3.5536 40.0264 5.1452 -18.1058 10.0896 -1.1484 25.5825 -8.6714 3.4316 -0.6304 0.0000 0.0000 0.0000 -0.4549 0.4242 1.7303 2.1466 6.5469 5.6059 3.2434 -0.1539 -4.9659 0.0000 0.0000 -0.0000
-47.9568 39.9284 63.2210 -178.9930 34.8394 178.1470 0.0000 0.0000 0.0000 3.2160 -0.9442 2.1068 -1.2870 -5.3322 4.1029 -2.5873 0.1578 -3.9529 0.0000 -0.0000 0.0000 0.0000 0.0000 0.0000 1.2298 0.4706 1.9514 1.7391 0.1116 -0.3322 -0.0000 0.0000 -0.0000 2.0982 0.0572 8.3899 -0.0000 0.0000 -0.0000 -34.3892 -2.6014 2.4680 -44.1285 -15.0291 -16.5786 -10.7447 5.0255 51.4094 14.2728 -3.9450 -1.1177 -0.0000 0.0000 -0.0000 34.8712 5.1776 3.5500 39.9024 5.0992 -18.3186 9.9742 -1.2614 26.1253 -8.6556 3.1633 -0.6113 0.0000 0.0000 0.0000 -0.4753 0.4139 1.7015 2.1304 6.5150 5.5879 3.2645 -0.1553 -4.9325 0.0000 0.0000 -0.0000
-47.9568 39.9284 63.2311 -179.0420 34.9341 178.1010 0.0000 0.0000 0.0000 3.1764 -0.9640 2.0780 -1.2734 -5.2183 4.1655 -2.6015 0.1587 -3.9688 0.0000 -0.0000 0.0000 0.0000 0.0000 0.0000 1.0903 0.4895 2.0306 1.8388 0.1191 -0.3523 -0.0000 0.0000 -0.0000 2.0882 -0.0416 8.4921 -0.0000 0.0000 -0.0000 -34.3421 -2.5758 2.4548 -44.3119 -15.0277 -16.5764 -10.7207 5.0210 51.5642 13.9199 -4.1736 -1.1148 -0.0000 0.0000 -0.0000 34.8356 5.1629 3.5409 39.8091 4.9655 -18.3432 9.9449 -1.1795 26.4251 -8.6452 2.9885 -0.5989 0.0000 0.0000 0.0000 -0.5223 0.3851 1.7547 2.1594 6.6397 5.5110 3.2373 -0.1536 -4.8834 0.0000 0.0000 -0.0000
-47.9568 39.9284 63.2438 -179.0620 35.1351 178.0630 0.0000 0.0000 0.0000 3.1820 -0.9389 2.0397 -1.2770 -5.0406 4.2507 -2.6040 0.1589 -3.9902 0.0000 -0.0000 0.0000 0.0000 0.0000 0.0000 1.0549 0.5316 2.1753 1.8094 0.1720 -0.4485 -0.0000 0.0000 -0.0000 2.0937 -0.1703 8.5659 -0.0000 0.0000 -0.0000 -34.1887 -2.5465 2.4335 -44.5371 -14.9614 -16.4755 -10.7707 5.0183 51.6299 13.7288 -4.3673 -1.1204 -0.0000 0.0000 -0.0000 34.8720 5.1591 3.5425 39.7856 4.8669 -18.2013 10.0185 -1.0493 26.2280 -8.8992 2.9434 -0.6142 0.0000 0.0000 0.0000 -0.5312 0.3892 1.7942 2.1940 6.8314 5.5045 3.1913 -0.1506 -4.8843 0.0000 0.0000 -0.0000
-47.9552 39.9284 63.2622 -179.0590 35.2758 178.0670 0.0000 0.0000 0.0000 3.2006 -0.9235 1.9693 -1.2584 -4.9203 4.3237 -2.6260 0.1604 -3.9908 0.0000 -0.0000 0.0000 0.0000 0.0000 0.0000 1.1664 0.4887 2.3659 1.5529 0.1757 -0.6363 -0.0000 0.0000 -0.0000 2.1814 -0.2118 8.6127 -0.0000 0.0000 -0.0000 -33.9475 -2.5259 2.4105 -44.7135 -14.8208 -16.3757 -10.8388 5.0198 51.5556 13.7041 -4.3258 -1.1137 -0.0000 0.0000 -0.0000 35.0360 5.1835 3.5670 39.7347 4.8747 -18.1613 10.0590 -1.1102 26.0266 -9.3359 2.8168 -0.6365 0.0000 0.0000 0.0000 -0.4981 0.4237 1.7431 2.1954 6.9264 5.5902 3.1783 -0.1498 -4.9194 0.0000 0.0000 -0.0000
-47.9484 39.9284 63.2859 -179.0500 35.3373 178.0920 0.0000 0.0000 0.0000 3.2131 -0.9473 1.9267 -1.1906 -4.8529 4.3060 -2.7125 0.1658 -3.9534 0.0000 -0.0000 0.0000 0.0000 0.0000 0.0000 1.2833 0.3825 2.5599 1.2556 0.1215 -0.8411 -0.0000 0.0000 -0.0000 2.3151 -0.1540 8.6669 -0.0000 0.0000 -0.0000 -33.7509 -2.5180 2.3954 -44.7646 -14.6565 -16.3536 -10.8637 5.0205 51.5209 13.7532 -4.1539 -1.0987 -0.0000 0.0000 -0.0000 35.2486 5.2216 3.6015 39.6349 4.8940 -18.1684 10.0657 -1.1860 25.9742 -9.4331 2.6958 -0.6346 0.0000 0.0000 0.0000 -0.4674 0.4261 1.6850 2.2234 6.9694 5.6286 3.1567 -0.1484 -4.9129 0.0000 0.0000 -0.0000
-47.9290 39.9284 63.3104 -178.9980 35.4459 178.1460 0.0000 0.0000 0.0000 3.2903 -0.9262 1.9494 -1.1306 -4.7875 4.1647 -2.8252 0.1728 -3.8747 0.0000 -0.0000 0.0000 0.0000 0.0000 0.0000 1.2756 0.3444 2.6570 1.1791 0.0987 -0.9424 -0.0000 0.0000 -0.0000 2.3738 -0.1190 8.7650 -0.0000 0.0000 -0.0000 -33.6732 -2.5233 2.3928 -44.7193 -14.5652 -16.4359 -10.8124 5.0153 51.7090 13.8782 -4.0107 -1.0930 -0.0000 0.0000 -0.0000 35.4208 5.2525 3.6296 39.5393 4.8290 -17.9915 10.1579 -0.9976 25.5659 -9.0564 2.7540 -0.6122 0.0000 0.0000 0.0000 -0.3838 0.4550 1.6494 2.2584 7.0325 5.6397 3.1006 -0.1448 -4.8990 0.0000 0.0000 -0.0000
-47.9011 39.9269 63.3319 -178.8850 35.6576 178.2610 0.0000 0.0000 0.0000 3.4677 -0.7994 1.9572 -1.1397 -4.7133 4.0122 -2.8868 0.1765 -3.7889 0.0000 -0.0000 0.0000 0.0000 0.0000 0.0000 1.2146 0.4119 2.5983 1.2819 0.1504 -0.9075 -0.0000 0.0000 -0.0000 2.3191 -0.1543 8.9070 -0.0000 0.0000 -0.0000 -33.6518 -2.5451 2.4001 -44.6435 -14.5908 -16.6379 -10.6781 5.0055 52.0764 14.0664 -3.8774 -1.0932 -0.0000 0.0000 -0.0000 35.5491 5.2736 3.6499 39.4896 4.7463 -17.6793 10.3384 -0.6644 24.6108 -8.7973 2.8269 -0.5990 0.0000 0.0000 0.0000 -0.1386 0.6827 1.5073 2.1242 7.0106 5.8596 3.1017 -0.1410 -5.0221 0.0000 0.0000 -0.0000
-47.8782 39.9220 63.3510 -178.7810 35.8773 178.3980 0.0000 0.0000 0.0000 3.6385 -0.6578 1.8622 -1.1801 -4.6325 4.0067 -2.9082 0.1779 -3.7554 0.0000 -0.0000 0.0000 0.0000 0.0000 0.0000 1.2185 0.4750 2.4848 1.3479 0.2010 -0.8346 -0.0000 0.0000 -0.0000 2.2265 -0.1285 9.0393 -0.0000 0.0000 -0.0000 -33.6775 -2.5763 2.4141 -44.4891 -14.6570 -16.9122 -10.5168 4.9983 52.3707 14.1721 -3.6942 -1.0807 -0.0000 0.0000 -0.0000 35.5791 5.2800 3.6553 39.5390 4.7801 -17.5059 10.4498 -0.5340 23.9067 -9.0349 2.6929 -0.6064 0.0000 0.0000 0.0000 0.1995 1.0882 1.2163 1.7885 6.8340 6.3315 3.2150 -0.1379 -5.2952 0.0000 0.0000 -0.0000
-47.8654 39.9156 63.3709 -178.7650 36.0040 178.4600 0.0000 0.0000 0.0000 3.6890 -0.6196 1.7201 -1.1746 -4.5422 4.1358 -2.9594 0.1815 -3.7862 0.0000 -0.0000 0.0000 0.0000 0.0000 0.0000 1.2166 0.4490 2.4840 1.3969 0.1653 -0.8350 -0.0000 0.0000 -0.0000 2.1428 0.0527 9.0982 -0.0000 0.0000 -0.0000 -33.8616 -2.5963 2.4333 -44.1754 -14.6624 -17.1323 -10.4309 4.9989 52.3834 14.1128 -3.5148 -1.0555 -0.0000 0.0000 -0.0000 35.3857 5.2554 3.6277 39.7371 4.9477 -17.5665 10.3926 -0.6913 24.2634 -9.3307 2.4928 -0.6127 0.0000 0.0000 0.0000 0.3987 1.3710 0.9580 1.5331 6.6841 6.7512 3.3144 -0.1352 -5.5248 0.0000 0.0000 -0.0000
-47.8554 39.9118 63.3933 -178.8170 36.0654 178.4180 0.0000 0.0000 0.0000 3.6563 -0.6619 1.6679 -1.1259 -4.4495 4.2215 -3.0407 0.1871 -3.8145 0.0000 -0.0000 0.0000 0.0000 0.0000 0.0000 1.0730 0.3921 2.6360 1.6025 0.0772 -0.9199 -0.0000 0.0000 -0.0000 2.0426 0.2461 9.0858 -0.0000 0.0000 -0.0000 -34.1817 -2.5989 2.4541 -43.8127 -14.6197 -17.2380 -10.4369 5.0042 52.2120 14.0333 -3.4227 -1.0388 -0.0000 0.0000 -0.0000 35.0262 5.2072 3.5759 40.0035 5.1422 -17.7243 10.2462 -0.9346 25.2682 -9.3485 2.4512 -0.6108 0.0000 0.0000 0.0000 0.3736 1.3422 0.8890 1.5850 6.7576 6.8947 3.2717 -0.1317 -5.5765 0.0000 0.0000 -0.0000
-47.8424 39.9116 63.4168 -178.8710 36.1644 178.3280 0.0000 0.0000 0.0000 3.6405 -0.6825 1.7130 -1.0977 -4.3491 4.2092 -3.0942 0.1907 -3.7934 0.0000 -0.0000 0.0000 0.0000 0.0000 0.0000 0.8441 0.4070 2.8393 1.8975 0.0502 -1.0283 -0.0000 0.0000 -0.0000 1.9130 0.2529 9.0794 -0.0000 0.0000 -0.0000 -34.4027 -2.6109 2.4727 -43.6229 -14.6232 -17.3105 -10.4303 5.0054 52.1767 14.1447 -3.4155 -1.0465 -0.0000 0.0000 -0.0000 34.7959 5.1741 3.5420 40.1350 5.2480 -17.8650 10.1368 -1.1047 25.9488 -9.5466 2.4989 -0.6279 0.0000 0.0000 0.0000 0.2680 1.1735 0.9596 1.8022 6.9996 6.8602 3.1541 -0.1270 -5.5203 0.0000 0.0000 -0.0000
-47.8306 39.9136 63.4376 -178.9180 36.3358 178.2450 0.0000 0.0000 0.0000 3.6483 -0.6608 1.7517 -1.1082 -4.2170 4.1967 -3.1176 0.1924 -3.7373 0.0000 -0.0000 0.0000 0.0000 0.0000 0.0000 0.7123 0.4940 2.9942 2.0330 0.1217 -1.1079 -0.0000 0.0000 -0.0000 1.7752 0.1247 9.1383 -0.0000 0.0000 -0.0000 -34.4109 -2.6541 2.4906 -43.6291 -14.6938 -17.4233 -10.3473 5.0000 52.3827 14.4879 -3.4249 -1.0740 -0.0000 0.0000 -0.0000 34.8500 5.1769 3.5479 40.0483 5.2193 -17.9690 10.0872 -1.1676 26.1707 -10.2216 2.5122 -0.6751 0.0000 0.0000 0.0000 0.2100 1.0926 1.0441 1.9308 7.2392 6.8141 3.0993 -0.1260 -5.4737 0.0000 0.0000 -0.0000
-47.8252 39.9175 63.4519 -178.9750 36.5121 178.1860 0.0000 0.0000 0.0000 3.6327 -0.6464 1.7449 -1.1206 -4.0657 4.2106 -3.1549 0.1949 -3.6689 0.0000 -0.0000 0.0000 0.0000 0.0000 0.0000 0.7374 0.5625 3.0762 1.9530 0.2067 -1.1412 -0.0000 0.0000 -0.0000 1.6487 0.0922 9.2379 -0.0000 0.0000 -0.0000 -34.3530 -2.6999 2.5055 -43.6699 -14.7475 -17.5201 -10.2636 4.9959 52.5434 14.8565 -3.4268 -1.1026 -0.0000 0.0000 -0.0000 35.0017 5.1948 3.5686 39.8805 5.1025 -17.9964 10.0632 -1.0984 26.4229 -10.7381 2.6179 -0.7193 0.0000 0.0000 0.0000 0.1753 1.0837 1.1000 1.9547 7.4184 6.7670 3.1081 -0.1275 -5.4447 0.0000 0.0000 -0.0000
